<svg width="40" height="40" viewBox="0 0 40 40" fill="none" xmlns="http://www.w3.org/2000/svg"><path fill="#D24318" d="M0 0h40v40H0z"/><path d="M31.743 25.201c-.894-1.689-3.996-3.52-4.133-3.6-.398-.227-.814-.347-1.204-.347-.578 0-1.052.265-1.34.747-.453.543-1.016 1.178-1.152 1.276-1.058.717-1.885.636-2.8-.28l-5.111-5.111c-.91-.91-.994-1.748-.281-2.8.1-.137.734-.7 1.277-1.155a1.48 1.48 0 00.687-.888c.139-.5.037-1.087-.29-1.66-.077-.132-1.909-3.235-3.597-4.128A2.2 2.2 0 0012.773 7c-.586 0-1.138.229-1.553.643l-1.129 1.129c-1.786 1.786-2.432 3.81-1.922 6.016.425 1.839 1.665 3.795 3.685 5.815l6.542 6.543C20.953 29.703 23.39 31 25.64 31c1.656 0 3.199-.703 4.585-2.09l1.13-1.13a2.184 2.184 0 00.388-2.579z" fill="#fff"/></svg>