<svg width="40" height="40" viewBox="0 0 40 40" fill="none" xmlns="http://www.w3.org/2000/svg"><path fill="#D24318" d="M0 0h40v40H0z"/><path d="M23.596 27h5.8v-1.299h-5.8V27zm-3.692-14.004v11.309l-8.506-11.309H10.1V27h1.504V15.701L20.1 27h1.298V12.996h-1.494zm9.698 7.5c0-.85-.313-1.582-.918-2.187a2.987 2.987 0 00-2.188-.909c-.86 0-1.582.303-2.187.909a2.987 2.987 0 00-.909 2.187c0 .86.303 1.592.909 2.197a2.972 2.972 0 002.187.909c.85 0 1.582-.303 2.188-.909.605-.605.918-1.338.918-2.197zm-1.3 0c0 .547-.175 1.006-.527 1.367a1.704 1.704 0 01-1.279.537c-.508 0-.928-.175-1.28-.537-.35-.361-.527-.82-.527-1.367s.176-.996.528-1.357a1.74 1.74 0 011.28-.537c.507 0 .927.185 1.278.537.352.361.528.81.528 1.357z" fill="#fff"/></svg>