<svg width="24" height="24" viewBox="0 0 24 24" fill="none" xmlns="http://www.w3.org/2000/svg"><path d="M23.743 18.201c-.894-1.689-3.996-3.52-4.133-3.6-.398-.227-.814-.347-1.204-.347-.578 0-1.052.265-1.34.747-.453.543-1.016 1.178-1.152 1.276-1.058.717-1.885.636-2.8-.28l-5.111-5.111c-.91-.91-.994-1.748-.281-2.8.1-.137.734-.7 1.277-1.155a1.48 1.48 0 00.687-.888c.139-.5.037-1.087-.29-1.66C9.32 4.251 7.487 1.148 5.8.255A2.2 2.2 0 004.773 0C4.187 0 3.635.229 3.22.643L2.091 1.772C.305 3.558-.34 5.582.17 7.788c.425 1.839 1.665 3.795 3.685 5.815l6.542 6.543C12.953 22.703 15.39 24 17.64 24c1.655 0 3.199-.703 4.585-2.09l1.13-1.13a2.184 2.184 0 00.388-2.579z" fill="#fff"/></svg>