<svg width="28" height="27" viewBox="0 0 28 27" fill="none" xmlns="http://www.w3.org/2000/svg"><path d="M25.643 11.123c-.624 0-1.13.507-1.13 1.131v1.14a11.052 11.052 0 01-3.264 7.864 11.052 11.052 0 01-7.862 3.254h-.006C7.246 24.51 2.259 19.515 2.262 13.381a11.052 11.052 0 013.263-7.865 11.052 11.052 0 017.862-3.254h.007c1.568.001 3.089.325 4.521.963a1.131 1.131 0 10.92-2.066A13.303 13.303 0 0013.396 0h-.008a13.3 13.3 0 00-9.46 3.916A13.3 13.3 0 000 13.38a13.3 13.3 0 003.916 9.468 13.3 13.3 0 009.463 3.926h.008a13.3 13.3 0 009.461-3.915 13.3 13.3 0 003.926-9.465v-1.14a1.13 1.13 0 00-1.13-1.13z" fill="#D24318"/><path d="M27.669 1.565a1.131 1.131 0 00-1.6 0L13.387 14.247 10.51 11.37a1.131 1.131 0 10-1.6 1.6l3.678 3.676a1.127 1.127 0 001.6 0l13.48-13.482a1.131 1.131 0 000-1.6z" fill="#D24318"/></svg>