<svg width="32" height="32" viewBox="0 0 32 32" fill="none" xmlns="http://www.w3.org/2000/svg">
<g clip-path="url(#clip0_507_35)">
<rect x="-4" y="-4" width="40" height="40" fill="#D24318"/>
<path d="M16 5C12.1459 5 9 8.14585 9 12C9 14.4088 10.2312 16.5521 12.0938 17.8125C8.52661 19.3423 6 22.8813 6 27H8C8 22.5693 11.5693 19 16 19C20.4307 19 24 22.5693 24 27H26C26 22.8813 23.4734 19.3423 19.9062 17.8125C21.7688 16.5521 23 14.4088 23 12C23 8.14585 19.8541 5 16 5ZM16 7C18.7733 7 21 9.22673 21 12C21 14.7733 18.7733 17 16 17C13.2267 17 11 14.7733 11 12C11 9.22673 13.2267 7 16 7Z" fill="white"/>
</g>
<defs>
<clipPath id="clip0_507_35">
<rect width="32" height="32" fill="white"/>
</clipPath>
</defs>
</svg>
