<svg width="40" height="40" viewBox="0 0 40 40" fill="none" xmlns="http://www.w3.org/2000/svg">
<rect width="40" height="40" fill="#D24318"/>
<path d="M31.7427 25.2015C30.8493 23.5123 27.7469 21.6808 27.6103 21.6007C27.2117 21.3737 26.7957 21.2536 26.4064 21.2536C25.8275 21.2536 25.3537 21.5188 25.0667 22.0012C24.6129 22.544 24.0501 23.1786 23.9135 23.2769C22.8564 23.9942 22.0288 23.9128 21.1132 22.997L16.0029 17.8855C15.093 16.9756 15.0094 16.1377 15.7217 15.0862C15.8214 14.9487 16.4558 14.3853 16.9986 13.931C17.3448 13.725 17.5823 13.4188 17.6864 13.0433C17.8248 12.5436 17.7229 11.9557 17.3964 11.3831C17.3194 11.2513 15.4872 8.14805 13.7992 7.25497C13.4842 7.08811 13.1292 7 12.7732 7C12.1868 7 11.6351 7.22872 11.2205 7.643L10.0913 8.77191C8.30539 10.5576 7.65892 12.5818 8.1688 14.788C8.59414 16.6267 9.83368 18.5833 11.8536 20.603L18.3961 27.1465C20.9526 29.7033 23.3898 31 25.6402 31C25.6402 31 25.6402 31 25.6407 31C27.2958 31 28.8387 30.2965 30.2255 28.9095L31.3543 27.7806C32.0403 27.0949 32.1961 26.0581 31.7427 25.2015Z" fill="white"/>
</svg>
