<svg width="40" height="40" viewBox="0 0 40 40" fill="none" xmlns="http://www.w3.org/2000/svg">
<rect width="40" height="40" fill="#D24318"/>
<path d="M23.5957 27H29.3965V25.7012H23.5957V27ZM19.9043 12.9961V24.3047L11.3984 12.9961H10.0996V27H11.6035V15.7012L20.0996 27H21.3984V12.9961H19.9043ZM29.6016 20.4961C29.6016 19.6465 29.2891 18.9141 28.6836 18.3086C28.0781 17.7031 27.3457 17.4004 26.4961 17.4004C25.6367 17.4004 24.9141 17.7031 24.3086 18.3086C23.7031 18.9141 23.4004 19.6465 23.4004 20.4961C23.4004 21.3555 23.7031 22.0879 24.3086 22.6934C24.9141 23.2988 25.6367 23.6016 26.4961 23.6016C27.3457 23.6016 28.0781 23.2988 28.6836 22.6934C29.2891 22.0879 29.6016 21.3555 29.6016 20.4961ZM28.3027 20.4961C28.3027 21.043 28.127 21.502 27.7754 21.8633C27.4238 22.2246 27.0039 22.4004 26.4961 22.4004C25.9883 22.4004 25.5684 22.2246 25.2168 21.8633C24.8652 21.502 24.6895 21.043 24.6895 20.4961C24.6895 19.9492 24.8652 19.5 25.2168 19.1387C25.5684 18.7871 25.9883 18.6016 26.4961 18.6016C27.0039 18.6016 27.4238 18.7871 27.7754 19.1387C28.127 19.5 28.3027 19.9492 28.3027 20.4961Z" fill="white"/>
</svg>
