<svg width="162" height="30" viewBox="0 0 162 30" fill="none" xmlns="http://www.w3.org/2000/svg"><path fill-rule="evenodd" clip-rule="evenodd" d="M0 29.495a.51.51 0 00.51.51h29.15a.518.518 0 00.513-.51V.51A.51.51 0 0029.66 0H.51A.512.512 0 000 .508v28.987z" fill="#fff"/><path fill-rule="evenodd" clip-rule="evenodd" d="M15.084 15.717l9.594 9.541a.503.503 0 00.557.112.511.511 0 00.315-.47v-5.048a.502.502 0 00-.148-.36L15.446 9.59a.515.515 0 00-.724 0l-5.493 5.46V4.82a.506.506 0 00-.51-.507H5.133a.513.513 0 00-.48.311.505.505 0 00-.04.196v20.074a.508.508 0 00.314.472.516.516 0 00.56-.106l9.596-9.544z" fill="#101010"/><path fill-rule="evenodd" clip-rule="evenodd" d="M20.077 25.409a.513.513 0 00.51-.508.512.512 0 00-.153-.363l-4.997-4.969a.506.506 0 00-.71 0l-4.996 4.969a.51.51 0 00.359.87h9.987z" fill="#D7440B"/><path fill-rule="evenodd" clip-rule="evenodd" d="M52.398 7.326v15.545H49.05v-6.316h-6.693v6.316H39V7.326h3.357v6.223h6.693V7.326h3.348zm6.56 0l3.673 6.676 3.682-6.667h3.576l-5.581 9.985v5.55H60.95v-5.55l-5.58-9.994h3.588zm21.27 7.113h6.137v5.766a3.67 3.67 0 01-.286.32 7.798 7.798 0 01-.838.726c-.43.343-.889.648-1.372.91a9.19 9.19 0 01-1.896.721 8.93 8.93 0 01-2.416.326 8.367 8.367 0 01-6.035-2.38 7.685 7.685 0 01-2.458-5.732 7.65 7.65 0 01.621-3.117 7.686 7.686 0 011.837-2.602 8.796 8.796 0 013.918-2.123 8.828 8.828 0 014.461.067 7.032 7.032 0 011.826.777c.44.277.863.581 1.266.91.289.229.554.486.79.769l.248.326-2.125 2.113-.18-.244a5.38 5.38 0 00-.513-.536 5.09 5.09 0 00-.855-.667 5.534 5.534 0 00-1.232-.533 5.095 5.095 0 00-4.616.703 5.047 5.047 0 00-1.549 1.827 5.016 5.016 0 00-.529 2.331 4.982 4.982 0 001.474 3.64 5.037 5.037 0 003.66 1.465 5.663 5.663 0 001.907-.31 3.825 3.825 0 001.21-.623l.34-.284v-2.107h-2.796V14.44zm18.822 0h6.137v5.766a4.204 4.204 0 01-.285.32c-.263.26-.543.503-.838.726a9.607 9.607 0 01-1.372.91 9.28 9.28 0 01-1.9.721 8.919 8.919 0 01-2.412.326 8.373 8.373 0 01-6.038-2.38 7.715 7.715 0 01-1.835-2.608 7.68 7.68 0 01-.62-3.123 7.645 7.645 0 01.62-3.118 7.683 7.683 0 011.835-2.602 8.8 8.8 0 013.92-2.123 8.834 8.834 0 014.462.067 7.034 7.034 0 011.825.777c.44.277.863.581 1.266.91.289.228.553.485.788.769l.251.326-2.125 2.113-.18-.244c-.158-.19-.33-.37-.513-.536a5.2 5.2 0 00-.856-.667 5.582 5.582 0 00-1.232-.533 5.094 5.094 0 00-4.615.703 5.048 5.048 0 00-1.55 1.827 5.016 5.016 0 00-.528 2.331 4.98 4.98 0 001.473 3.64 5.037 5.037 0 003.66 1.465 5.662 5.662 0 001.908-.31 3.816 3.816 0 001.209-.623l.34-.284v-2.107h-2.792V14.44h-.003zm13.911 5.44h8.371v2.992h-11.73V7.326h11.493v2.99h-8.136v3.12h6.354v2.997h-6.354v3.446h.002zm22.833 2.992h-10.609V7.326h3.356V19.88h7.25v2.992h.003zm3.308 0V7.326h3.354v15.545h-3.354zm16.37-8.432h6.12v5.766a3.186 3.186 0 01-.285.32c-.263.26-.543.503-.838.726-.43.342-.889.647-1.372.91a9.293 9.293 0 01-1.899.721 8.93 8.93 0 01-2.416.326 8.337 8.337 0 01-6.023-2.38 7.69 7.69 0 01-2.456-5.732 7.649 7.649 0 01.62-3.117 7.68 7.68 0 011.836-2.602 8.793 8.793 0 013.918-2.123 8.829 8.829 0 014.461.067 7.022 7.022 0 011.828.777c.44.278.862.582 1.266.91.289.228.554.486.79.769l.251.326-2.125 2.113-.179-.244a5.505 5.505 0 00-.514-.522 5.233 5.233 0 00-.855-.667 5.62 5.62 0 00-1.232-.533 5.038 5.038 0 00-1.56-.24 5.058 5.058 0 00-1.982.359 5.023 5.023 0 00-2.79 2.775 4.98 4.98 0 00-.362 1.97 4.994 4.994 0 001.473 3.64 5.044 5.044 0 003.661 1.465 5.667 5.667 0 001.91-.31 3.834 3.834 0 001.21-.623l.339-.284v-2.124h-2.792l-.003-2.439z" fill="#fff"/></svg>