<svg width="64" height="64" viewBox="0 0 64 64" fill="none" xmlns="http://www.w3.org/2000/svg"><circle cx="32" cy="32" r="32" fill="#fff" fill-opacity=".5"/><path d="M22.152 44a2.137 2.137 0 01-1.521-.63A2.14 2.14 0 0120 41.847c0-.574.224-1.115.63-1.522l4.352-4.352a2.14 2.14 0 011.522-.63c.575 0 1.116.224 1.523.63.839.84.838 2.206 0 3.045l-4.352 4.352a2.14 2.14 0 01-1.523.63zm4.352-7.785a1.27 1.27 0 00-.905.375l-4.351 4.352a1.271 1.271 0 00-.375.905c0 .342.133.664.375.906.483.483 1.326.483 1.81 0L27.41 38.4a1.282 1.282 0 00-.906-2.186z" fill="#fff"/><path d="M28.156 37.494a.439.439 0 01-.422-.326 1.256 1.256 0 00-.325-.578 1.266 1.266 0 00-.578-.324.437.437 0 01-.197-.73l1.396-1.397a.431.431 0 01.33-.128.44.44 0 01.317.16c.343.42.73.809 1.151 1.152a.44.44 0 01.033.647l-1.396 1.396a.437.437 0 01-.309.128zm-.46-1.788a2.025 2.025 0 01.598.596l.618-.618a9.026 9.026 0 01-.597-.596l-.618.618z" fill="#fff"/><path d="M34.982 38.036c-4.973 0-9.018-4.046-9.018-9.018 0-4.973 4.046-9.018 9.018-9.018C39.955 20 44 24.045 44 29.018c0 4.972-4.045 9.018-9.018 9.018zm0-17.163c-4.49 0-8.145 3.654-8.145 8.145 0 4.49 3.654 8.145 8.145 8.145s8.145-3.654 8.145-8.145-3.654-8.145-8.145-8.145z" fill="#fff"/><path d="M30.262 29.025a.436.436 0 01-.436-.436 5.592 5.592 0 015.585-5.586.436.436 0 110 .873 4.718 4.718 0 00-4.712 4.713.436.436 0 01-.437.436z" fill="#fff"/></svg>