<svg width="16" height="16" viewBox="0 0 16 16" fill="none" xmlns="http://www.w3.org/2000/svg"><path d="M15.829 12.134c-.596-1.126-2.664-2.347-2.756-2.4a1.643 1.643 0 00-.802-.232.999.999 0 00-.893.499c-.303.362-.678.785-.769.85-.705.478-1.256.424-1.867-.186L5.335 7.257c-.606-.607-.662-1.165-.187-1.866.066-.092.49-.467.851-.77a.986.986 0 00.459-.592c.092-.333.024-.725-.194-1.107C6.213 2.834 4.991.765 3.866.17a1.467 1.467 0 00-1.719.259l-.753.752C.204 2.371-.227 3.721.113 5.192c.283 1.226 1.11 2.53 2.456 3.877l4.362 4.362C8.635 15.136 10.26 16 11.76 16c1.103 0 2.132-.469 3.056-1.394l.752-.752a1.456 1.456 0 00.26-1.72z" fill="#fff"/></svg>