<svg width="16" height="12" viewBox="0 0 16 12" fill="none" xmlns="http://www.w3.org/2000/svg"><path d="M15.993 6.248c-.005-.142-.01-.284-.013-.426-.022-.824-.032-1.65-.078-2.473-.045-.804-.307-1.548-.623-2.283-.108-.252-.376-.458-.617-.612C14.26.197 13.72.14 13.259.106 12.64.061 12.02.062 11.402.046 10.65.027 9.899.1 9.15.053A38.323 38.323 0 006.893 0C6.03-.002 5.169.023 4.307.033c-.424.005-.85.007-1.275 0-.356-.007-.977.031-1.31.168C1.057.473.876.774.518 1.416c-.185.33-.256.697-.28 1.077-.023.379-.194.736-.184 1.112C.07 4.19-.001 4.77 0 5.352c.003 1.57-.01 3.152.664 4.59l.156.273c.108.145.149.34.274.464.258.257.772.307 1.112.349.424.052.853.053 1.279.088.7.056 1.435-.019 2.137.017.705.035 1.403.05 2.11.032 1.72-.045 3.436.072 5.155-.053.706-.051 1.592.104 2.105-.487.475-.546.66-1.268.806-1.959.168-.79.223-1.61.195-2.418zm-6.187.193c-.242.164-.504.292-.757.436-.515.294-1.01.638-1.512.954-.13.082-1.114.558-1.114.558.014-.41.004-.784-.01-1.176-.015-.411.003-.822-.003-1.234-.004-.246-.002-2.206-.003-2.587v-.66c.125.08.299.162.422.246.231.157.458.32.688.48.24.17.498.305.751.451.51.293.93.71 1.455.982.41.213.79.464 1.184.704-.03-.019-.882.697-1.1.846z" fill="#fff"/></svg>