<svg width="48" height="48" viewBox="0 0 48 48" fill="none" xmlns="http://www.w3.org/2000/svg"><g clip-path="url(#clip0_149_848)" fill="#27AE60"><path d="M47.421.344a1.536 1.536 0 00-2.174.24L20.55 31.66l-8.086-10.173a1.536 1.536 0 00-2.175-.24 1.573 1.573 0 00-.236 2.198L19 34.703c.27.485.778.774 1.326.774.086 0 .173-.025.262-.04.05.006.1.033.151.033.49 0 .965-.239 1.266-.645L47.66 2.542a1.573 1.573 0 00-.24-2.198z"/><path d="M44.37 15.888c-.856 0-1.547.7-1.547 1.563V43.31c0 .861-.695 1.563-1.548 1.563H4.643a1.558 1.558 0 01-1.548-1.563V6.295c0-.861.695-1.563 1.548-1.563h25.358c.856 0 1.548-.7 1.548-1.565 0-.862-.692-1.563-1.547-1.563H4.642C2.082 1.604 0 3.708 0 6.295V43.31C0 45.897 2.083 48 4.643 48h36.631c2.56 0 4.643-2.104 4.643-4.691V17.45a1.553 1.553 0 00-1.548-1.563z"/></g><defs><clipPath id="clip0_149_848"><path fill="#fff" d="M0 0h48v48H0z"/></clipPath></defs></svg>