<svg width="24" height="24" viewBox="0 0 24 24" fill="none" xmlns="http://www.w3.org/2000/svg"><g clip-path="url(#clip0_149_784)" fill="#fff"><path d="M20.824 2.206H3.176A3.18 3.18 0 000 5.382v13.236a3.18 3.18 0 003.176 3.176h17.648A3.18 3.18 0 0024 18.618V5.382a3.18 3.18 0 00-3.176-3.176zm1.237 16.412c0 .682-.555 1.237-1.237 1.237H3.176a1.238 1.238 0 01-1.237-1.237V5.382c0-.682.555-1.237 1.237-1.237h17.648c.682 0 1.237.555 1.237 1.237v13.236z"/><path d="M23.825 4.826a.97.97 0 00-1.35-.238L12 11.92 1.525 4.587A.97.97 0 10.414 6.176l11.03 7.721a.968.968 0 001.112 0l11.03-7.721a.97.97 0 00.239-1.35z"/></g><defs><clipPath id="clip0_149_784"><path fill="#fff" d="M0 0h24v24H0z"/></clipPath></defs></svg>