<svg width="64" height="64" viewBox="0 0 64 64" fill="none" xmlns="http://www.w3.org/2000/svg">
<circle cx="32" cy="32" r="32" fill="white" fill-opacity="0.5"/>
<path d="M22.1524 44.0001C21.5776 44.0001 21.0372 43.7768 20.6307 43.3703C20.2237 42.9629 20 42.4225 20 41.8473C20 41.2728 20.2237 40.7317 20.6307 40.3251L24.9824 35.9735C25.3889 35.5669 25.9293 35.3428 26.5041 35.3428C27.079 35.3428 27.6197 35.5669 28.0267 35.9726C28.8658 36.8129 28.8653 38.1791 28.0267 39.0177L23.675 43.3703C23.2681 43.7768 22.7273 44.0001 22.1524 44.0001ZM26.5041 36.2155C26.1624 36.2155 25.8411 36.3484 25.5994 36.5905L21.2477 40.9422C21.0057 41.1842 20.8727 41.5055 20.8727 41.8473C20.8727 42.189 21.0057 42.5112 21.2477 42.7532C21.731 43.2365 22.5739 43.2365 23.058 42.7524L27.4097 38.4007C27.9083 37.9021 27.9083 37.0899 27.4092 36.5905C27.1676 36.3485 26.8463 36.2155 26.5041 36.2155Z" fill="white"/>
<path d="M28.1563 37.4937C28.1183 37.4937 28.08 37.4886 28.0421 37.4784C27.8912 37.4375 27.7736 37.319 27.734 37.1682C27.6747 36.9406 27.5652 36.7463 27.4092 36.5895C27.2541 36.4352 27.0594 36.3261 26.831 36.2656C26.6801 36.2256 26.5621 36.1079 26.5212 35.9571C26.4807 35.8062 26.5237 35.6452 26.6341 35.5353L28.0301 34.1392C28.1171 34.0514 28.2368 34.0046 28.3604 34.0114C28.4835 34.0182 28.5986 34.0762 28.6766 34.1716C29.0205 34.5918 29.4078 34.9796 29.8284 35.323C29.9239 35.4014 29.9818 35.5165 29.9882 35.6392C29.9942 35.7628 29.9482 35.8821 29.8608 35.9699L28.4648 37.3659C28.3821 37.4486 28.2705 37.4937 28.1563 37.4937ZM27.6969 35.7065C27.8162 35.7841 27.9266 35.8727 28.0263 35.9725C28.1264 36.073 28.2159 36.1838 28.2935 36.3023L28.9118 35.6844C28.7038 35.4952 28.5048 35.2958 28.3152 35.0878L27.6969 35.7065Z" fill="white"/>
<path d="M34.9821 38.0359C30.0095 38.0359 25.9642 33.9901 25.9642 29.0178C25.9642 24.0453 30.0095 20 34.9821 20C39.9547 20 44 24.0453 44 29.0178C44 33.9901 39.9547 38.0359 34.9821 38.0359ZM34.9821 20.8727C30.4911 20.8727 26.837 24.5268 26.837 29.0178C26.837 33.5086 30.4911 37.1631 34.9821 37.1631C39.4732 37.1631 43.1273 33.5086 43.1273 29.0178C43.1273 24.5268 39.4732 20.8727 34.9821 20.8727Z" fill="white"/>
<path d="M30.2622 29.025C30.021 29.025 29.8259 28.8299 29.8259 28.5887C29.8259 25.5086 32.3311 23.0029 35.4108 23.0029C35.652 23.0029 35.8472 23.1981 35.8472 23.4393C35.8472 23.6805 35.652 23.8757 35.4108 23.8757C32.8127 23.8757 30.6986 25.9897 30.6986 28.5887C30.6986 28.8299 30.5034 29.025 30.2622 29.025Z" fill="white"/>
</svg>
