<svg width="16" height="16" viewBox="0 0 16 16" fill="none" xmlns="http://www.w3.org/2000/svg"><path d="M16 7.794c0 4.304-3.516 7.794-7.855 7.794a7.867 7.867 0 01-3.796-.97L0 16l1.418-4.182A7.712 7.712 0 01.29 7.794C.29 3.489 3.807 0 8.145 0 12.485 0 16 3.49 16 7.794zM8.145 1.241c-3.641 0-6.603 2.94-6.603 6.553A6.48 6.48 0 002.8 11.636l-.825 2.433 2.537-.806a6.6 6.6 0 003.634 1.084c3.64 0 6.603-2.94 6.603-6.553s-2.962-6.553-6.604-6.553zm3.967 8.348c-.049-.08-.177-.127-.37-.223-.192-.095-1.139-.558-1.315-.621-.176-.064-.305-.096-.433.095s-.497.622-.61.749c-.112.128-.225.144-.417.048-.193-.095-.813-.297-1.548-.948a5.76 5.76 0 01-1.071-1.323c-.113-.19-.012-.294.084-.39.087-.085.193-.222.289-.334.096-.112.128-.191.192-.319.065-.127.033-.239-.016-.334-.048-.096-.433-1.036-.594-1.419-.16-.382-.32-.318-.433-.318-.112 0-.24-.016-.369-.016a.71.71 0 00-.513.239c-.177.191-.674.653-.674 1.593s.69 1.849.786 1.976c.096.127 1.332 2.119 3.29 2.884 1.957.765 1.957.51 2.31.477.352-.031 1.139-.461 1.3-.907.16-.447.16-.83.112-.909z" fill="#fff"/></svg>