<svg width="30" height="19" viewBox="0 0 30 19" fill="none" xmlns="http://www.w3.org/2000/svg"><path d="M22 8.636a.636.636 0 00-.636.637v1.273a.636.636 0 101.272 0V9.273A.636.636 0 0022 8.636zm5.09 1.273h-1.908V6.727a.636.636 0 00-.636-.636H20.09V1.636A.636.636 0 0019.454 1H1.636A.636.636 0 001 1.636v14c0 .352.285.637.636.637H4.3c-.071.2-.117.412-.117.636a1.909 1.909 0 103.818 0c0-.224-.046-.436-.117-.636h9.779c-.07.2-.116.412-.116.636a1.909 1.909 0 103.818 0 1.88 1.88 0 00-.113-.636h7.113a.636.636 0 00.636-.637v-3.818a1.91 1.91 0 00-1.91-1.909zm-21 7.636a.636.636 0 110-1.272.636.636 0 010 1.273zM2.274 15V2.273h16.545V15H2.273zm17.181 2.546a.636.636 0 110-1.273.636.636 0 010 1.273zM27.727 15h-7.636V7.364h3.818v3.818h3.182c.351 0 .636.284.636.636V15zM12.887 3.725a.631.631 0 10-.894.893L15.378 8H4.182a.636.636 0 100 1.273h11.196l-3.385 3.382a.63.63 0 10.894.893l4.468-4.466a.63.63 0 000-.892l-4.468-4.465z" fill="#D24318" stroke="#D24318" stroke-width=".3"/></svg>