<svg width="28" height="28" viewBox="0 0 28 28" fill="none" xmlns="http://www.w3.org/2000/svg"><path d="M6.992 3.502v1.162H3.496a1.167 1.167 0 00-1.163 1.17v18.66a1.167 1.167 0 001.163 1.172h21a1.167 1.167 0 001.17-1.173V5.835a1.167 1.167 0 00-1.17-1.171h-3.497V3.502c-.02-1.567-2.353-1.55-2.336 0v1.162H9.326V3.502c.002-1.56-2.331-1.557-2.334 0zM4.667 6.996h2.325V8.17c0 1.56 2.334 1.538 2.334 0V6.996h9.337V8.17c0 1.575 2.336 1.537 2.336 0V6.996h2.334v3.507H4.667V6.996zm0 5.83h18.666v10.505H4.667V12.826zm2.325 4.171c-1.455 0-1.548 2.336 0 2.336h2.334c1.589.002 1.625-2.33 0-2.336H6.992zm5.841 0c-1.554.005-1.59 2.338 0 2.336h2.334c1.563.002 1.654-2.33 0-2.336h-2.334zm5.83 0c-1.532.005-1.55 2.338 0 2.336h2.336c1.547 0 1.637-2.33 0-2.336h-2.336z" fill="#D24318"/></svg>